<svg xmlns="http://www.w3.org/2000/svg" xmlns:xlink="http://www.w3.org/1999/xlink" preserveAspectRatio="xMidYMid" width="80" height="79" viewBox="0 0 80 79">
  <defs>
    <style>
      .cls-1 {
        filter: url(#drop-shadow-1);
      }

      .cls-2 {
        fill: #9ad0e7;
      }

      .cls-2, .cls-3 {
        fill-rule: evenodd;
      }

      .cls-3 {
        fill: #00a0e6;
      }
    </style>

    <filter id="drop-shadow-1" filterUnits="userSpaceOnUse">
      <feOffset dx="10.566" dy="9.185" in="SourceAlpha"/>
      <feGaussianBlur stdDeviation="1" result="dropBlur"/>
      <feFlood flood-opacity="0.14"/>
      <feComposite operator="in" in2="dropBlur" result="dropShadowComp"/>
      <feComposite in="SourceGraphic" result="shadowed"/>
    </filter>
  </defs>
  <g class="cls-1">
    <path d="M47.746,55.389 C45.449,55.389 43.588,53.525 43.588,51.225 C43.588,48.925 45.449,47.061 47.746,47.061 C50.042,47.061 51.904,48.925 51.904,51.225 C51.904,53.525 50.042,55.389 47.746,55.389 ZM34.138,47.818 C31.842,47.818 29.980,45.953 29.980,43.653 C29.980,41.354 31.842,39.489 34.138,39.489 C36.434,39.489 38.296,41.354 38.296,43.653 C38.296,45.953 36.434,47.818 34.138,47.818 ZM31.114,15.261 C28.818,15.261 26.956,13.397 26.956,11.097 C26.956,8.797 28.818,6.933 31.114,6.933 C33.410,6.933 35.272,8.797 35.272,11.097 C35.272,13.397 33.410,15.261 31.114,15.261 ZM22.798,37.975 C20.502,37.975 18.640,36.111 18.640,33.811 C18.640,31.511 20.502,29.647 22.798,29.647 C25.094,29.647 26.956,31.511 26.956,33.811 C26.956,36.111 25.094,37.975 22.798,37.975 ZM19.774,22.832 C17.478,22.832 15.616,20.968 15.616,18.668 C15.616,16.368 17.478,14.504 19.774,14.504 C22.070,14.504 23.932,16.368 23.932,18.668 C23.932,20.968 22.070,22.832 19.774,22.832 ZM19.774,44.789 C22.070,44.789 23.932,46.654 23.932,48.953 C23.932,51.253 22.070,53.118 19.774,53.118 C17.478,53.118 15.616,51.253 15.616,48.953 C15.616,46.654 17.478,44.789 19.774,44.789 Z" class="cls-2"/>
    <path d="M58.273,38.073 C57.371,36.594 56.955,34.956 56.974,33.342 C53.436,32.523 50.217,30.342 48.178,26.998 C46.517,24.271 45.902,21.201 46.216,18.255 C45.275,17.548 44.446,16.658 43.796,15.592 C41.072,11.124 42.470,5.301 46.917,2.551 C37.258,-1.396 25.917,-0.867 16.323,4.975 C0.281,14.743 -4.801,35.656 4.972,51.688 C14.746,67.722 35.675,72.799 51.717,63.032 C59.660,58.196 64.913,50.627 67.012,42.273 C63.632,42.700 60.161,41.167 58.273,38.073 ZM17.636,17.145 C18.777,16.450 20.267,16.811 20.963,17.953 C21.659,19.094 21.297,20.583 20.156,21.277 C19.014,21.972 17.524,21.610 16.828,20.471 C16.132,19.328 16.495,17.840 17.636,17.145 ZM20.762,51.753 C19.217,52.694 17.204,52.205 16.264,50.662 C15.324,49.120 15.812,47.107 17.357,46.168 C18.899,45.228 20.913,45.716 21.854,47.259 C22.794,48.801 22.304,50.815 20.762,51.753 ZM19.964,35.704 C19.023,34.162 19.513,32.150 21.056,31.209 C22.599,30.271 24.612,30.758 25.553,32.302 C26.493,33.843 26.004,35.855 24.461,36.795 C22.918,37.735 20.904,37.246 19.964,35.704 ZM35.398,46.277 C33.853,47.218 31.840,46.728 30.900,45.186 C29.959,43.644 30.447,41.631 31.992,40.691 C33.535,39.752 35.550,40.241 36.489,41.782 C37.429,43.326 36.940,45.338 35.398,46.277 ZM49.450,53.870 C47.907,54.809 45.894,54.322 44.953,52.779 C44.013,51.237 44.502,49.224 46.045,48.284 C47.589,47.344 49.603,47.833 50.541,49.375 C51.484,50.918 50.994,52.931 49.450,53.870 ZM33.595,14.091 C32.053,15.030 30.039,14.542 29.098,13.000 C28.158,11.456 28.648,9.445 30.192,8.505 C31.734,7.564 33.748,8.054 34.689,9.596 C35.628,11.139 35.138,13.152 33.595,14.091 Z" class="cls-3"/>
  </g>
</svg>
