<?xml version="1.0" encoding="utf-8"?>
<!-- Generator: Adobe Illustrator 18.1.1, SVG Export Plug-In . SVG Version: 6.00 Build 0)  -->
<svg version="1.1" id="Warstwa_1" xmlns="http://www.w3.org/2000/svg" xmlns:xlink="http://www.w3.org/1999/xlink" x="0px" y="0px"
	 viewBox="0 0 349 44.9" enable-background="new 0 0 349 44.9" xml:space="preserve">
<polygon fill="#142355" points="51.9,2.2 50.3,11.2 64.3,11.2 58.9,42.4 69.8,42.4 75.3,11.2 89.5,11.2 91.1,2.2 "/>
<polygon fill="#C82814" points="188.8,2.2 175.5,15.7 167,2.2 156.9,2.2 149.8,42.4 160.2,42.4 164.5,17.9 170.9,29.1 176,29.1 
	186,18 181.8,42.4 192.1,42.4 199.2,2.2 "/>
<polygon fill="#142355" points="259.3,2.2 257.6,11.2 271.7,11.2 266.2,42.4 277.1,42.4 282.6,11.2 296.8,11.2 298.4,2.2 "/>
<path fill="#142355" d="M38.5,6.5l-7.9,7.9c4.4,4.4,4.4,11.4,0,15.8c-4.4,4.4-11.4,4.4-15.8,0l-7.9,7.9c8.7,8.7,22.9,8.7,31.6,0
	C47.3,29.4,47.3,15.3,38.5,6.5"/>
<path fill="#C82814" d="M30.6,14.4l7.9-7.9c-8.7-8.7-22.9-8.7-31.6,0c-8.7,8.7-8.7,22.9,0,31.6l7.9-7.9c-4.4-4.4-4.4-11.4,0-15.8
	C19.2,10.1,26.3,10.1,30.6,14.4"/>
<path fill="#C82814" d="M134.8,6.5l-7.9,7.9c4.4,4.4,4.4,11.4,0,15.8c-4.4,4.4-11.4,4.4-15.8,0l-7.9,7.9c8.7,8.7,22.9,8.7,31.6,0
	C143.5,29.4,143.5,15.3,134.8,6.5"/>
<path fill="#142355" d="M126.9,14.4l7.9-7.9c-8.7-8.7-22.9-8.7-31.6,0c-8.7,8.7-8.7,22.9,0,31.6l7.9-7.9c-4.4-4.4-4.4-11.4,0-15.8
	C115.4,10.1,122.5,10.1,126.9,14.4"/>
<path fill="#142355" d="M245.9,6.5l-7.9,7.9c4.4,4.4,4.4,11.4,0,15.8c-4.4,4.4-11.4,4.4-15.8,0l-7.9,7.9c8.7,8.7,22.9,8.7,31.6,0
	C254.6,29.4,254.6,15.3,245.9,6.5"/>
<path fill="#C82814" d="M238,14.4l7.9-7.9c-8.7-8.7-22.9-8.7-31.6,0c-8.7,8.7-8.7,22.9,0,31.6l7.9-7.9c-4.4-4.4-4.4-11.4,0-15.8
	C226.5,10.1,233.6,10.1,238,14.4"/>
<path fill="#C82814" d="M342.1,6.5l-7.9,7.9c4.4,4.4,4.4,11.4,0,15.8c-4.4,4.4-11.4,4.4-15.8,0l-7.9,7.9c8.7,8.7,22.9,8.7,31.6,0
	C350.8,29.4,350.8,15.3,342.1,6.5"/>
<path fill="#142355" d="M334.2,14.4l7.9-7.9c-8.7-8.7-22.9-8.7-31.6,0c-8.7,8.7-8.7,22.9,0,31.6l7.9-7.9c-4.4-4.4-4.4-11.4,0-15.8
	C322.7,10.1,329.8,10.1,334.2,14.4"/>
</svg>
