<?xml version="1.0" encoding="utf-8"?>
<!-- Generator: Adobe Illustrator 18.1.1, SVG Export Plug-In . SVG Version: 6.00 Build 0)  -->
<svg version="1.1" id="Layer_1" xmlns="http://www.w3.org/2000/svg" xmlns:xlink="http://www.w3.org/1999/xlink" x="0px" y="0px"
	 viewBox="130 54 736 894" enable-background="new 130 54 736 894" xml:space="preserve">
<g>
	<path fill="#E82309" d="M643.2,73H200.4c-30.1,0-54.5,24.7-54.5,55.2v744.4c0,15.2,6.2,29,15.9,39c9.9,10,23.5,16.2,38.6,16.2
		h599.2c30.1,0,54.5-24.7,54.5-55.2V286.5L643.2,73L643.2,73z"/>
	<path fill="#C51E08" d="M738.8,169.8l-95.1,96.4l210.4,213V286.5L738.8,169.8L738.8,169.8z"/>
	<path fill="#F49184" d="M643.2,73h-7.1v165.4c0,30.5,24.4,55.2,54.5,55.2h163.3v-7.1L643.2,73L643.2,73z"/>
	<path fill="#FFFFFF" d="M442.7,613.5l52.8-104.9c4.9,24.8,53.5,72.8,53.5,72.8C529,583.8,442.7,613.5,442.7,613.5 M657.8,607.8
		c-1.5-1-3.3-1.8-4.9-2.6c-3.8,0-7.3,0.1-10,0.1c-8.9,0-19.9-8.9-28.4-17.7c-34.9-17.7-78.2-50-106.4-130.5c0,0-17.4-64.5-19.9-86.8
		c-2.5-22.2,7.4-44.6,12.5-24.8c0,0,10,22.4,4.9,39.7l4.9,29.8c0,0,17.4-64.5,4.9-81.8c0,0-47.1-27.3-49.7,15
		c-2.5,42.1,2.6,103.8,7.7,113.7c0,0-49.6,151-114.5,242.8c0,0-27.5,39.7-39.9,44.6c0,0-29.9,12.4-10-14.8c0,0,47.4-54.6,57.4-69.5
		c0,0-86.9,49.6-91.8,61.9c-4.9,12.4-17.3,37.3,14.4,49.7c0,0,36.7,3,64.1-26.8c0,0,64.4-79.5,76.9-104.3c0,0,40.5-15,175.2-39.8
		c0,0,72.3,34.5,94.9,39.4c22.5,4.9,32.4,22.4,32.4,22.4s26.9-19.9,14.4-27.5C734.7,632.4,687.7,625.1,657.8,607.8 M720.1,612.8
		c17.4,9.9,15,17.3,27.5,7.4c12.5-9.9-12.5-22.2-32.4-29.8c-19.9-7.4-114.8-19.2-114.8-19.2s6,8.1,14.1,16.5
		c15.1,7.7,28.4,12.6,38.3,17.6C673,604.8,705.4,604.4,720.1,612.8"/>
</g>
</svg>
