<?xml version="1.0" standalone="no"?>
<!DOCTYPE svg PUBLIC "-//W3C//DTD SVG 1.1//EN" "http://www.w3.org/Graphics/SVG/1.1/DTD/svg11.dtd" >
<svg xmlns="http://www.w3.org/2000/svg">
<metadata>Generated by IcoMoon</metadata>
<defs>
<font id="otomoto" horiz-adv-x="1024">
<font-face units-per-em="1024" ascent="960" descent="-64" />
<missing-glyph horiz-adv-x="1024" />
<glyph unicode="&#x20;" horiz-adv-x="512" d="" />
<glyph unicode="&#x21;" glyph-name="observe_Active" horiz-adv-x="725" d="M503.355 232.588c-3.514 0-6.888 0.843-10.121 2.39l-131.286 67.751-131.286-67.751c-7.309-3.795-16.165-3.092-22.912 1.687s-10.121 12.932-8.715 20.944l25.020 143.515-106.265 101.627c-5.904 5.623-8.012 14.197-5.482 21.928s9.418 13.353 17.57 14.478l146.748 20.944 65.643 130.583c3.655 7.309 11.245 11.948 19.538 11.948s15.884-4.639 19.538-11.948l65.643-130.583 146.748-20.944c8.153-1.125 15.040-6.747 17.57-14.478s0.422-16.165-5.482-21.928l-106.125-101.627 25.020-143.515c1.406-8.012-1.968-16.165-8.715-20.944-3.655-2.671-8.153-4.076-12.651-4.076z" />
<glyph unicode="&#x22;" glyph-name="observe_Inactive" horiz-adv-x="725" d="M502.512 233.993c-3.514 0-6.888 0.843-10.121 2.39l-130.583 67.47-130.583-67.47c-7.309-3.795-16.165-3.092-22.771 1.687s-9.98 12.791-8.574 20.803l25.020 142.812-105.703 101.065c-5.904 5.623-8.012 14.056-5.482 21.787s9.277 13.353 17.43 14.478l145.764 20.663 65.362 129.88c3.655 7.309 11.245 11.807 19.398 11.807 8.293 0 15.743-4.639 19.398-11.807l65.362-129.88 146.045-20.803c8.153-1.125 14.9-6.747 17.43-14.478s0.422-16.165-5.482-21.787l-105.703-101.065 25.020-142.812c1.406-8.012-1.968-16.024-8.574-20.803-3.795-2.53-8.293-3.936-12.651-3.936zM361.668 349.114c3.514 0 6.888-0.843 10.121-2.39l101.908-52.57-19.398 111.326c-1.265 6.888 1.125 13.916 6.185 18.835l82.37 78.856-113.856 16.305c-7.028 0.984-13.213 5.341-16.305 11.667l-51.024 101.205-50.884-101.346c-3.092-6.325-9.277-10.683-16.305-11.667l-113.856-16.305 82.37-78.856c5.060-4.92 7.45-11.948 6.185-18.835l-19.398-111.185 101.908 52.57c3.092 1.546 6.606 2.39 9.98 2.39z" />
<glyph unicode="&#x23;" glyph-name="mail" horiz-adv-x="725" d="M102.611 672.127v-410.022h520.082v410.022h-520.082zM528.657 625.601l-165.161-142.812-165.021 142.812h330.182zM156.587 308.632v287.451l206.908-178.936 205.503 177.671v-286.045l-412.411-0.141z" />
<glyph unicode="&#x24;" glyph-name="changepassword" horiz-adv-x="725" d="M595.002 426.705h-463.998v79.699h463.998v-79.699zM595.002 295.841h-463.998v79.699h463.998v-79.699zM591.488 162.306h-463.998v79.699h463.998v-79.699zM294.76 697.007v-155.744h-76.326v155.744h76.326zM513.476 697.007v-155.744h-76.326v155.744h76.326zM513.616 640.641h-294.479v79.699h294.479v-79.699z" />
<glyph unicode="&#x25;" glyph-name="more_vertical" horiz-adv-x="725" d="M414.098 635.722c0-26.988-24.036-48.916-53.554-48.916s-53.554 21.928-53.554 48.916 24.036 48.916 53.554 48.916 53.554-21.928 53.554-48.916zM414.098 476.323c0-26.988-24.036-48.916-53.554-48.916s-53.554 21.928-53.554 48.916 24.036 48.916 53.554 48.916 53.554-21.928 53.554-48.916zM414.098 304.837c0-26.988-24.036-48.775-53.554-48.775s-53.554 21.928-53.554 48.775c0 26.988 24.036 48.775 53.554 48.775s53.554-21.787 53.554-48.775z" />
<glyph unicode="&#x26;" glyph-name="more_horizontal" horiz-adv-x="725" d="M195.101 523.974c26.988 0 48.916-24.036 48.916-53.554s-21.928-53.554-48.916-53.554-48.916 23.896-48.916 53.414 21.928 53.695 48.916 53.695zM354.499 523.974c26.988 0 48.916-24.036 48.916-53.554s-21.928-53.554-48.916-53.554-48.916 24.036-48.916 53.554 21.928 53.554 48.916 53.554zM526.127 523.974c26.988 0 48.775-24.036 48.775-53.554s-21.928-53.554-48.775-53.554c-26.988 0-48.775 24.036-48.775 53.554s21.787 53.554 48.775 53.554z" />
<glyph unicode="&#x27;" glyph-name="invoicing" horiz-adv-x="725" d="M98.816 537.89v-287.029h522.191v287.029h-522.191zM122.571 590.179v-26.145h474.681v26.145h-474.681zM146.185 642.328v-26.145h427.311v26.145h-427.311z" />
<glyph unicode="&#x28;" glyph-name="screen" horiz-adv-x="725" d="M601.749 348.411h-478.054v343.114h478.054v-343.114zM174.157 399.014h376.989v242.049h-376.989v-242.049zM362.652 377.789v-88.695zM387.953 288.953h-50.603v88.695h50.603v-88.695zM476.367 267.025h-227.149zM476.367 241.724h-227.149v50.603h227.149v-50.603z" />
<glyph unicode="&#x29;" glyph-name="logoff" horiz-adv-x="725" d="M129.318 660.882h61.988v-435.323h-61.988v435.323zM326.106 741.706h61.988v-211.969h-61.988v211.969zM526.829 660.882h61.988v-435.323h-61.988v435.323zM151.527 287.548h435.323v-61.988h-435.323v61.988zM148.856 660.882h108.514v-61.988h-108.514v61.988zM461.468 660.882h108.514v-61.988h-108.514v61.988z" />
<glyph unicode="&#x2a;" glyph-name="gplus" horiz-adv-x="725" d="M352.532 658.071c4.076-2.53 8.715-6.185 13.775-11.104 4.92-5.060 9.699-11.386 14.337-18.695 4.498-7.028 8.434-15.321 11.948-24.739 2.811-9.558 4.217-20.663 4.217-33.313-0.422-23.333-5.482-42.028-15.321-55.944-4.779-6.747-9.98-13.072-15.321-18.695-6.044-5.763-12.37-11.526-19.117-17.43-3.936-4.076-7.45-8.574-10.683-13.635-3.936-5.341-5.763-11.386-5.763-18.414 0-6.747 1.968-12.37 5.904-16.868 3.374-4.217 6.606-8.012 9.839-11.104l22.068-18.133c13.635-11.245 25.723-23.615 35.984-37.249 9.699-13.775 14.759-31.767 15.181-54.117 0-31.627-13.916-59.599-41.607-83.916-28.815-25.161-70.422-38.233-124.679-39.076-45.402 0.422-79.418 10.121-101.767 29.237-22.631 17.711-34.016 39.076-34.016 63.816 0 12.088 3.655 25.442 11.104 40.342 7.169 14.759 20.1 27.831 38.795 39.076 21.084 12.088 43.153 20.1 66.205 24.177 22.912 3.374 41.888 5.341 57.068 5.763-4.639 6.185-8.855 12.791-12.51 19.819-4.217 6.747-6.466 15.040-6.466 24.598 0 5.763 0.843 10.542 2.39 14.337 1.406 4.076 2.811 7.731 3.936 11.245-7.309-0.843-14.337-1.265-20.803-1.265-34.578 0.422-60.864 11.386-78.996 32.751-18.976 19.96-28.394 43.153-28.394 69.579 0 32.048 13.494 61.004 40.342 87.149 18.414 15.321 37.671 25.161 57.49 29.94 19.679 4.076 38.093 6.044 55.382 6.044h129.88l-40.060-23.474h-40.342zM377.692 282.909c0 16.586-5.341 30.924-16.165 43.293-11.386 11.667-29.096 26.004-53.273 42.872-4.076 0.422-8.996 0.703-14.619 0.703-3.374 0.422-11.807 0-25.442-1.265-13.494-1.968-27.129-4.92-41.185-9.277-3.374-1.265-8.012-3.233-13.916-5.763-6.044-2.811-12.088-6.747-18.273-11.807-6.044-5.341-11.104-11.807-15.181-19.679-4.779-8.293-7.169-18.273-7.169-29.94 0-22.912 10.261-41.747 31.064-56.647 19.679-14.9 46.526-22.49 80.542-22.912 30.643 0.422 53.976 7.169 70 20.382 15.743 13.072 23.615 29.659 23.615 50.040zM287.17 473.934c17.149 0.703 31.346 6.747 42.731 18.414 5.482 8.293 8.996 16.727 10.542 25.442 0.984 8.715 1.406 16.024 1.406 21.928 0 25.723-6.606 51.587-19.679 77.731-6.185 12.51-14.197 22.771-24.177 30.643-10.261 7.45-21.928 11.386-35.281 11.807-17.57-0.422-32.189-7.59-43.856-21.366-9.839-14.478-14.478-30.643-14.056-48.354 0-23.615 6.888-48.072 20.663-73.655 6.606-11.948 15.181-21.928 25.723-30.221 10.402-8.153 22.349-12.37 35.984-12.37zM527.251 547.87h38.795v-176.969h-38.795v176.969zM635.203 478.713v-38.795h-176.969v38.795h176.969zM526.97 548.292h39.92v-178.234h-39.92v178.234zM636.89 478.432v-39.92h-178.234v39.92h178.234z" />
<glyph unicode="&#x2b;" glyph-name="facebook2" horiz-adv-x="725" d="M420.283 179.736v257.089h86.306l12.932 100.221h-99.237v63.956c0 28.956 8.012 48.775 49.619 48.775h52.992v89.539c-9.137 1.265-40.623 3.936-77.31 3.936-76.466 0-128.896-46.667-128.896-132.41v-73.936h-86.446v-100.221h86.446v-257.089h103.595z" />
<glyph unicode="&#x2c;" glyph-name="allegro" horiz-adv-x="725" d="M569.701 526.504c0 62.269-13.916 110.061-43.715 141.968-31.064 33.173-90.101 48.775-145.623 48.775s-112.45-14.337-159.679-42.45c-3.092-1.827-4.92-5.060-4.92-8.715 0-0.281 0-0.422 0-0.562 0 0 4.217-68.454 4.217-68.595 0.703-9.277 11.667-12.229 20.1-7.028 68.314 42.591 150.402 50.462 191.868 29.518 29.237-14.759 36.968-45.823 36.968-65.924v-9.98c0 0-76.185 0-114.278 0-48.916 0-199.318-17.43-199.318-156.306 0-0.422 0-0.843 0-1.406 0-0.281 0-0.562 0-0.843 0-47.37 16.305-85.603 48.635-110.904 29.94-23.615 70.984-34.86 121.727-34.86l230.664 0.141c7.45 0 13.494 6.044 13.494 13.494l-0.141 273.676zM468.918 324.234h-136.486c-18.133 1.125-33.876 5.763-48.354 16.868-15.602 12.088-22.631 26.285-22.771 44.84 0.281 24.598 16.586 73.936 99.518 73.936h108.093v-135.643z" />
<glyph unicode="&#x2d;" glyph-name="picture" horiz-adv-x="1229" d="M892.928 661.504h-667.648c-8.192 0-14.336-6.144-14.336-14.336v-496.64c0-8.192 6.144-14.336 14.336-14.336h668.672c8.192 0 14.336 6.144 14.336 14.336v496.64c-1.024 8.192-7.168 14.336-15.36 14.336zM830.464 219.136c0-8.192-6.144-14.336-14.336-14.336h-524.288c-8.192 0-14.336 6.144-14.336 14.336v359.424c0 8.192 6.144 14.336 14.336 14.336h524.288c8.192 0 14.336-6.144 14.336-14.336v-359.424zM1026.048 785.408c-1.024 8.192-7.168 13.312-15.36 13.312l-662.528-45.056c-7.168-1.024-13.312-6.144-13.312-13.312l3.072-44.032h160.768l447.488 28.672c7.168 1.024 14.336-6.144 15.36-14.336l23.552-354.304c1.024-8.192-3.072-14.336-10.24-15.36l-32.768-3.072v-70.656l107.52 7.168c7.168 1.024 12.288 7.168 12.288 15.36l-35.84 495.616zM777.216 447.488l-52.224-31.744c-6.144-4.096-16.384-3.072-22.528 2.048l-34.816 30.72c-6.144 5.12-15.36 5.12-20.48 0l-80.896-73.728c-6.144-5.12-16.384-12.288-23.552-15.36l-49.152-23.552c-7.168-3.072-18.432-3.072-25.6 0l-22.528 10.24c-7.168 3.072-17.408 1.024-22.528-4.096l-84.992-87.040c-5.12-5.12-3.072-10.24 4.096-10.24l433.152 1.024c8.192 0 13.312 6.144 13.312 14.336v181.248c0 7.168-5.12 10.24-11.264 6.144zM425.984 414.72c30.72 0 55.296 24.576 55.296 55.296s-24.576 55.296-55.296 55.296-55.296-24.576-55.296-55.296c0-30.72 24.576-55.296 55.296-55.296z" />
<glyph unicode="&#x2e;" glyph-name="status_error" horiz-adv-x="1229" d="M632.832 62.464c-215.040 0-390.144 175.104-390.144 390.144s175.104 390.144 390.144 390.144 390.144-175.104 390.144-390.144c-1.024-215.040-175.104-390.144-390.144-390.144zM632.832 756.736c-167.936 0-304.128-136.192-304.128-304.128s136.192-304.128 304.128-304.128 304.128 136.192 304.128 304.128-137.216 304.128-304.128 304.128zM736.256 288.768l-268.288 268.288 60.416 60.416 268.288-268.288zM528.384 288.768l-60.416 60.416 268.288 268.288 60.416-60.416z" />
<glyph unicode="&#x2f;" glyph-name="status_info" d="M514.048 62.464c-211.968 0-385.024 173.056-385.024 385.024s173.056 385.024 385.024 385.024 385.024-173.056 385.024-385.024c0-211.968-173.056-385.024-385.024-385.024zM514.048 747.52c-165.888 0-300.032-135.168-300.032-300.032 0-165.888 135.168-300.032 300.032-300.032 165.888 0 300.032 135.168 300.032 300.032 1.024 165.888-134.144 300.032-300.032 300.032zM472.064 497.664h83.968v-226.304h-83.968v226.304zM472.064 623.616h83.968v-79.872h-83.968v79.872z" />
<glyph unicode="&#x30;" glyph-name="status_tick" d="M537.6 76.8c-211.968 0-385.024 173.056-385.024 385.024s173.056 385.024 385.024 385.024 385.024-173.056 385.024-385.024c0-212.992-173.056-385.024-385.024-385.024zM537.6 761.856c-165.888 0-300.032-135.168-300.032-300.032 0-165.888 135.168-300.032 300.032-300.032 165.888 0 300.032 135.168 300.032 300.032s-134.144 300.032-300.032 300.032zM744.448 531.456l-59.392 60.416-186.368-186.368-102.4 101.376-59.392-59.392 161.792-161.792z" />
<glyph unicode="&#x31;" glyph-name="home" horiz-adv-x="569" d="M96.339 260.090h366.087v153.74h85.501l-266.136 266.136-266.537-266.136h79.881z" />
<glyph unicode="&#x32;" glyph-name="zoom" horiz-adv-x="569" d="M247.671 262.097c-124.437 0-225.995 101.156-225.995 225.593s101.156 225.593 225.995 225.593c124.437 0 225.995-101.156 225.995-225.593s-101.156-225.593-225.995-225.593zM247.671 656.685c-93.127 0-168.593-75.867-168.593-168.593 0-93.127 75.867-168.593 168.593-168.593 93.127 0 168.593 75.867 168.593 168.593 0.401 92.726-75.465 168.593-168.593 168.593zM387.362 348.401l140.494-140.494zM507.384 187.836l-140.494 140.494 40.543 40.141 140.494-140.494-40.543-40.141zM244.861 564.36v-158.959zM269.748 405.803h-49.374v158.959h49.775l-0.401-158.959zM165.381 485.282h158.959zM324.742 463.204h-159.36v43.352h159.36v-43.352z" />
<glyph unicode="&#x33;" glyph-name="attach" horiz-adv-x="569" d="M141.698 558.339v-285.805h282.995v442.355l-187.86 0.803 0.803-331.164 78.275 1.204 2.408 244.861h48.972v-292.227h-175.015v425.496h291.826l2.81-554.75h-409.038v350.833l63.824-1.606z" />
<glyph unicode="&#x34;" glyph-name="clock" horiz-adv-x="569" d="M41.747 482.472c0 134.473 109.585 244.058 244.058 244.058s244.058-109.585 244.058-244.058c0-134.473-109.585-244.058-244.058-244.058s-244.058 109.585-244.058 244.058zM95.536 482.472c0-105.17 85.501-190.67 190.67-190.67s190.67 85.501 190.67 190.67c0 105.17-85.501 190.67-190.67 190.67s-190.67-85.501-190.67-190.67zM189.466 445.542h123.635v160.564h-53.789v-106.775h-69.846v-53.789z" />
<glyph unicode="&#x35;" glyph-name="ciezarowe" horiz-adv-x="569" d="M525.046 464.409v0c-4.817 8.028-10.838 14.852-18.064 20.873 0 0-0.401 0-0.401 0.401-2.007 1.606-4.416 3.211-6.824 4.817-1.204 0.803-2.81 1.606-4.014 2.408-2.408 1.204-4.817 2.408-7.225 3.211-3.211 1.204-6.021 2.007-9.232 2.81-0.803 0.401-2.007 0.401-2.81 0.401-4.416 0.803-8.831 1.606-13.648 1.606-26.493 0-49.775-14.451-62.219-36.127h-104.367v277.777h-133.269l-122.832-122.832v-196.29h58.606c2.81-36.93 33.719-65.831 71.451-65.831s68.24 28.902 71.451 65.831h150.128c2.81-36.93 33.719-65.831 71.451-65.831 10.035 0 19.268 2.007 27.697 5.62 1.606 0.803 3.613 1.606 5.218 2.81 2.007 1.204 4.014 2.007 6.021 3.211 2.81 2.007 5.62 4.014 8.43 6.423 0.401 0.401 0.803 0.803 1.606 1.204 12.444 12.042 20.873 28.099 22.479 46.564v0c0 2.007 0.401 3.613 0.401 5.62 0 12.845-4.014 24.887-10.035 35.324zM169.797 398.577c-16.859 0-30.507 13.648-30.507 30.507s13.648 30.507 30.507 30.507c16.859 0 30.507-13.648 30.507-30.507s-13.648-30.507-30.507-30.507zM255.298 464.409h-22.88c-12.444 21.676-35.726 36.127-62.219 36.127s-49.775-14.451-62.219-36.127h-26.895v138.085l99.149 99.149h75.064v-237.234zM462.827 398.577c-16.859 0-30.507 13.648-30.507 30.507s13.648 30.507 30.507 30.507c16.859 0 30.507-13.648 30.507-30.507s-13.648-30.507-30.507-30.507z" />
<glyph unicode="&#x36;" glyph-name="przyczepy" horiz-adv-x="569" d="M375.721 479.261l0.401 153.339h-333.974v-195.487h95.937c3.211-37.733 34.12-67.036 72.254-67.036 10.035 0 19.268 2.007 27.697 5.62 2.007 0.803 3.613 2.007 5.218 2.81 2.007 1.204 4.014 2.007 6.021 3.211 3.211 2.007 6.021 4.416 8.831 6.824 0.401 0.401 0.803 0.803 1.606 1.204 12.845 12.042 21.676 28.902 22.88 47.768v0h265.734v42.148h-172.607zM209.938 411.824c-17.261 0-31.31 14.049-31.31 31.31s14.049 31.31 31.31 31.31c17.261 0 31.31-14.049 31.31-31.31 0-17.662-14.049-31.31-31.31-31.31zM333.573 479.261h-60.212c-4.817 8.028-10.838 15.254-18.064 21.275 0 0-0.401 0.401-0.401 0.401-2.007 1.606-4.416 3.211-6.824 4.817-1.204 0.803-2.81 1.606-4.416 2.408-2.408 1.204-4.817 2.408-7.225 3.211-3.211 1.204-6.423 2.408-9.634 2.81-0.803 0.401-2.007 0.401-2.81 0.803-4.416 0.803-8.831 1.204-13.247 1.204-26.895 0-50.578-14.852-63.022-36.93h-63.423v111.191h249.678v-111.191z" />
<glyph unicode="&#x37;" glyph-name="zamknij" horiz-adv-x="725" d="M172.441 628.997l17.77 17.77 100.691-65.155 82.666-82.666 83.777 83.777 101.419 65.625 35.796-35.793-65.625-101.42-83.778-83.778 82.668-82.669 65.152-100.688-35.534-35.533-100.695 65.149-82.665 82.668-83.778-83.778-101.417-65.625-35.793 35.799 65.622 101.415 83.78 83.78-82.666 82.668-65.156 100.688 17.769 17.769z" />
<glyph unicode="&#x38;" glyph-name="galleryBig" horiz-adv-x="725" d="M144.009 682.688h458.283v-300.4h-458.283v300.4zM144.009 327.669h458.283v-109.237h-458.283v109.237z" />
<glyph unicode="&#x39;" glyph-name="gallery" horiz-adv-x="725" d="M137.752 687.999h114.355v-107.531h-114.355v107.531zM137.752 509.636h114.355v-107.531h-114.355v107.531zM137.752 331.274h114.355v-107.533h-114.355v107.533zM309.286 687.999h114.358v-107.531h-114.358v107.531zM309.286 509.636h114.358v-107.531h-114.358v107.531zM309.286 331.274h114.358v-107.533h-114.358v107.533zM480.825 687.999h115.209v-107.531h-115.209v107.531zM480.825 509.636h115.209v-107.531h-115.209v107.531zM480.825 331.274h115.209v-107.533h-115.209v107.533z" />
<glyph unicode="&#x3a;" glyph-name="list" horiz-adv-x="725" d="M104.791 662.697h515.596v-107.559h-515.596v107.559zM104.791 484.288h515.596v-107.559h-515.596v107.559zM104.791 305.88h515.596v-107.561h-515.596v107.561z" />
<glyph unicode="&#x3b;" glyph-name="phone" horiz-adv-x="725" d="M582.97 136.049h-462.082v640.969h462.082v-640.969zM192.068 208.874h319.721v495.319h-319.721v-495.319zM453.027 647.282v-248.308h-202.285v248.308h202.285zM307.276 296.987c0 25.23 19.992 45.67 44.64 45.67 24.635 0 44.61-20.441 44.61-45.67 0-25.224-19.977-45.632-44.61-45.632-24.648 0-44.64 20.408-44.64 45.632z" />
<glyph unicode="&#x3c;" glyph-name="lokalizacja" horiz-adv-x="725" d="M358.91 757.34c-150.225 0-272.429-122.367-272.429-272.727v-10.168l272.429-358.074 272.464 358.074v10.168c0 150.36-122.236 272.727-272.464 272.727zM358.91 215.594l-212.137 278.832c5.118 112.712 98.307 202.783 212.137 202.783 113.836 0 207.019-90.071 212.173-202.783l-212.173-278.832zM358.91 620.155c-61.945 0-112.363-50.485-112.363-112.504 0-62.040 50.417-112.513 112.363-112.513 61.98 0 112.401 50.472 112.401 112.513 0 62.018-50.421 112.504-112.401 112.504zM358.91 455.256c-28.86 0-52.322 23.502-52.322 52.395 0 28.873 23.461 52.395 52.322 52.395 28.867 0 52.327-23.522 52.327-52.395 0.001-28.893-23.46-52.395-52.327-52.395z" />
<glyph unicode="&#x3d;" glyph-name="arrow_left" horiz-adv-x="725" d="M457.819 719.14l-277.898-279.47 277.898-279.485h121.622l-28.454 28.586-249.36 250.899 277.815 279.47h-121.623z" />
<glyph unicode="&#x3e;" glyph-name="arrow_right" horiz-adv-x="725" d="M193.977 719.14l28.454-28.582 249.361-250.888-277.815-279.487h121.622l277.9 279.487-277.9 279.47h-121.622z" />
<glyph unicode="&#x3f;" glyph-name="tick" horiz-adv-x="725" d="M364.354 183.18c-152.731 0-276.938 124.342-276.938 277.239 0 152.84 124.207 277.256 276.938 277.256s276.973-124.416 276.973-277.256c0-152.897-124.242-277.239-276.973-277.239zM364.354 676.825c-119.158 0-216.132-97.125-216.132-216.406 0-119.305 96.974-216.429 216.132-216.429 119.232 0 216.174 97.125 216.174 216.429 0 119.283-96.942 216.406-216.174 216.406zM513.645 511.161l-42.946 43.009-134.219-134.291-73.503 73.592-42.98-43.043 116.555-116.55 177.094 177.283z" />
<glyph unicode="&#x40;" glyph-name="dropdownarrow" horiz-adv-x="725" d="M155.441 407.719l207.147-204.858 207.147 204.858h-414.295zM155.441 530.632l207.147 204.874 207.147-204.874h-414.295z" />
<glyph unicode="&#x41;" glyph-name="maszyny-budowlane" horiz-adv-x="725" d="M702.196 518.563l-240.493 240.507-122.003-121.976 191.733-191.747h-257.543v127.476h-113.45l-135.944-142.827v-137.499h60.31c3.486-44.914 40.756-80.516 86.521-80.516 45.767 0 83.037 35.6 86.491 80.516h110.283c3.486-44.914 40.697-80.516 86.462-80.516 45.767 0 83.037 35.6 86.494 80.516h60.31v125.188l100.83 100.878zM461.702 696.238l177.65-177.677-59.16-59.145-177.621 177.677 59.131 59.145zM171.325 255.256c-24.222 0-43.95 19.701-43.95 43.923s19.728 43.92 43.95 43.92c24.192 0 43.894-19.698 43.894-43.92 0.001-24.222-19.7-43.923-43.894-43.923zM454.559 255.256c-24.192 0-43.891 19.701-43.891 43.923s19.698 43.92 43.891 43.92c24.222 0 43.923-19.698 43.923-43.92s-19.7-43.923-43.923-43.923zM558.103 335.743h-24.656c-13.882 29.797-43.891 50.607-78.887 50.607-34.934 0-64.975-20.81-78.859-50.607h-125.516c-13.855 29.797-43.864 50.607-78.861 50.607-34.964 0-65.034-20.81-78.916-50.607h-24.653v76.929l111.232 116.906h51.641v-127.476h327.473v-66.358z" />
<glyph unicode="&#x43;" glyph-name="czesci" horiz-adv-x="725" d="M363.331 562.535c-42.454 0-77.044-34.518-77.044-77.003 0-42.496 34.59-77.044 77.044-77.044 42.451 0 77.044 34.548 77.044 77.044 0 42.485-34.593 77.003-77.044 77.003zM363.331 454.24c-17.223 0-31.279 14.042-31.279 31.292 0 17.239 14.056 31.22 31.279 31.22 17.253 0 31.277-13.983 31.277-31.22 0-17.25-14.024-31.292-31.277-31.292zM564.655 462.651v45.778h-32.748c-4.061 29.823-15.811 57.157-33.266 80.025l23.243 23.258-32.374 32.356-23.214-23.258c-22.898 17.469-50.199 29.236-80.067 33.253v32.79h-45.767v-32.79c-29.837-4.017-57.201-15.785-80.067-33.253l-23.243 23.258-32.374-32.356 23.243-23.258c-17.424-22.868-29.177-50.202-33.266-80.025h-32.719v-45.778h32.719c4.088-29.856 15.84-57.201 33.266-80.055l-23.243-23.273 32.374-32.342 23.243 23.228c22.865-17.454 50.229-29.206 80.067-33.253v-32.761h45.767v32.761c29.867 4.047 57.168 15.799 80.067 33.253l23.214-23.228 32.374 32.342-23.243 23.273c17.454 22.854 29.203 50.199 33.266 80.055h32.748zM363.331 360.996c-68.662 0-124.509 55.844-124.509 124.536 0 68.651 55.847 124.509 124.509 124.509s124.509-55.86 124.509-124.509c0-68.692-55.847-124.536-124.509-124.536z" />
<glyph unicode="&#x44;" glyph-name="dealer" horiz-adv-x="725" d="M517.464 515.264h-54.869c19.642 22.895 31.596 52.592 31.596 85.066 0 72.145-58.696 130.86-130.844 130.86s-130.818-58.714-130.818-130.86c0-32.474 11.953-62.171 31.625-85.066h-52.822l-71.254-70.765v-204.636h446.538v204.447l-69.153 70.953zM294.164 649.636h138.363c9.995-13.912 15.896-30.903 15.896-49.307 0-46.92-38.161-85.066-85.078-85.066s-85.052 38.146-85.052 85.066c0.001 18.404 5.935 35.395 15.871 49.307zM540.821 285.642h-354.952v139.832l44.325 44.009h110.283v-105.414l22.868-24.998 22.924 24.998v105.414h111.865l42.685-43.791v-140.050z" />
<glyph unicode="&#x45;" glyph-name="dostawcze" horiz-adv-x="725" d="M279.116 700.111v-100.417h-82.919l-137.009-137.023v-118.302h52.246c3.196-41.012 37.556-73.429 79.404-73.429 41.82 0 76.179 32.415 79.407 73.429h180.529c3.196-41.012 37.558-73.429 79.377-73.429 41.82 0 76.179 32.415 79.407 73.429h57.947v355.742h-388.388zM190.838 316.72c-18.748 0-33.984 15.222-33.984 33.973 0 18.705 15.236 33.954 33.984 33.954 18.722 0 33.929-15.251 33.929-33.954 0-18.752-15.207-33.973-33.929-33.973zM279.116 390.122h-19.097c-13.767 24.007-39.574 40.278-69.181 40.278s-55.441-16.272-69.208-40.278h-16.704v53.585l110.224 110.208h63.967v-163.794zM530.149 316.72c-18.719 0-33.984 15.222-33.984 33.973 0 18.705 15.265 33.954 33.984 33.954 18.751 0 33.959-15.251 33.959-33.954 0-18.752-15.207-33.973-33.959-33.973zM621.739 390.122h-22.409c-13.767 24.007-39.599 40.278-69.181 40.278-29.608 0-55.444-16.272-69.181-40.278h-136.059v264.21h296.831v-264.21z" />
<glyph unicode="&#x48;" glyph-name="mojeotomoto" horiz-adv-x="725" d="M517.464 515.264h-54.869c19.642 22.895 31.596 52.592 31.596 85.066 0 72.145-58.696 130.86-130.844 130.86s-130.818-58.714-130.818-130.86c0-32.474 11.953-62.171 31.625-85.066h-52.822l-71.254-70.765v-204.636h446.538v204.447l-69.153 70.953zM294.164 649.636h138.363c9.995-13.912 15.896-30.903 15.896-49.307 0-46.92-38.16-85.066-85.078-85.066s-85.052 38.146-85.052 85.066c0.001 18.404 5.935 35.395 15.871 49.307zM386.271 469.483h111.865l42.685-43.791v-140.050h-354.952v139.832l44.325 44.009h110.283z" />
<glyph unicode="&#x49;" glyph-name="motocykle-i-quady" horiz-adv-x="725" d="M666.469 594.59h-202.879l-48.126-48.141h-92.279l-92.888-92.915h-20.362l-42.886 42.956 101.555 101.582h37.99v45.781h-56.972l-132.774-132.818v-27.838c-32.748-9.936-56.626-40.378-56.626-76.251 0-43.995 35.772-79.751 79.724-79.751 43.979 0 79.778 35.758 79.778 79.751 0 0.271-0.056 0.545-0.056 0.835h179.895c0-0.29-0.030-0.564-0.030-0.835 0-43.995 35.801-79.751 79.751-79.751 43.953 0 79.722 35.758 79.722 79.751 0 22.075-9.042 42.062-23.588 56.537l131.050 131.107zM139.949 372.976c-18.722 0-33.929 15.222-33.929 33.973 0 18.705 15.206 33.956 33.929 33.956 18.748 0 33.984-15.251 33.984-33.956 0-18.752-15.236-33.973-33.984-33.973zM414.715 453.536h-119.67l47.118 47.132h92.279l48.099 48.171h73.472l-63.336-63.392c-4.348 0.749-8.812 1.209-13.393 1.209-26.582 0.001-50.084-13.077-64.57-33.119zM479.287 372.976c-18.719 0-33.956 15.222-33.956 33.973 0 18.705 15.236 33.956 33.956 33.956 18.751 0 33.959-15.251 33.959-33.956-0.001-18.752-15.207-33.973-33.959-33.973z" />
<glyph unicode="&#x4a;" glyph-name="osobowe" horiz-adv-x="725" d="M545.949 650.941h-210.34l-109.789-108.454h-100.173l-67.682-67.712v-99.739h71.195c9.302-31.725 38.594-54.925 73.273-54.925 34.708 0 63.997 23.198 73.273 54.925h175.659c9.332-31.725 38.653-54.925 73.301-54.925 34.678 0 63.967 23.198 73.273 54.925h70.792v153.094l-122.779 122.811zM202.432 365.864c-16.905 0-30.646 13.723-30.646 30.616 0 16.89 13.74 30.629 30.646 30.629 16.879 0 30.616-13.737 30.616-30.629s-13.737-30.616-30.616-30.616zM524.663 365.864c-16.908 0-30.646 13.723-30.646 30.616 0 16.89 13.737 30.629 30.646 30.629 16.876 0 30.616-13.737 30.616-30.629s-13.74-30.616-30.616-30.616zM622.993 420.789h-25.98c-10.225 30.256-38.739 52.102-72.349 52.102-33.639 0-62.153-21.845-72.349-52.102h-177.504c-10.225 30.256-38.769 52.102-72.379 52.102-33.613 0-62.153-21.845-72.349-52.102h-26.325v35.052l40.869 40.898h99.971l109.819 108.451h172.551l96.025-95.982v-88.42z" />
<glyph unicode="&#x4c;" glyph-name="maszyny-rolnicze" horiz-adv-x="725" d="M603.681 525.216v175.545h-171.312l-95.622-92.466v-61.032h-81.883v41.921l18.751 18.751-32.345 32.386-32.2-32.216v-60.844h-55.903l-41.706-41.718v-51.297c-30.962-16.387-52.188-48.934-52.188-86.331 0-53.83 43.78-97.624 97.61-97.624 45.908 0 84.443 31.926 94.814 74.726h154.463c23.099-44.325 69.441-74.726 122.811-74.726 76.351 0 138.447 62.141 138.447 138.492 0.001 48.836-25.46 91.751-63.735 116.432zM156.882 316.074c-28.602 0-51.845 23.255-51.845 51.842 0 28.585 23.243 51.842 51.845 51.842 28.569 0 51.842-23.258 51.842-51.842 0-28.588-23.272-51.842-51.842-51.842zM390.492 408.785c0-6.134 0.545-12.095 1.295-18.015h-140.091c-10.31 42.697-48.675 74.552-94.468 74.711v21.125l14.891 14.876h254.287c-22.264-24.58-35.914-57.040-35.914-92.697zM382.54 547.262v41.647l68.318 66.073h107.026v-107.719h-175.344zM528.97 316.074c-51.123 0-92.714 41.602-92.714 92.711 0 51.093 41.591 92.698 92.714 92.698 51.093 0 92.711-41.605 92.711-92.698-0.001-51.109-41.618-92.711-92.711-92.711z" />
<glyph unicode="&#x4d;" glyph-name="sercz" horiz-adv-x="725" d="M363.366 276.186c-124.849 0-226.442 93.907-226.442 209.328 0 115.446 101.593 209.351 226.442 209.351 124.869 0 226.402-93.907 226.402-209.351 0-115.42-101.533-209.328-226.402-209.328zM363.366 641.962c-93.303 0-169.197-70.18-169.197-156.446 0-86.242 75.893-156.423 169.197-156.423 93.272 0 169.187 70.18 169.187 156.423 0 86.266-75.915 156.446-169.187 156.446zM621.536 219.002l-140.785 130.177 40.475 37.408 140.781-130.179-40.471-37.405z" />
<glyph unicode="&#x4e;" glyph-name="star" horiz-adv-x="725" d="M503.111 247.146c-3.487 0-6.992 1.049-9.991 3.119l-129.776 90.231-128.235-90.17c-3.011-2.101-6.535-3.167-10.053-3.167-3.59 0-7.164 1.096-10.196 3.272-6.027 4.318-8.55 11.956-6.259 18.928l51.027 154.588-127.905 90.3c-6.188 4.237-8.854 11.96-6.576 19.013 2.257 7.059 8.929 11.851 16.482 11.851h156.427l48.95 167.337c2.394 6.845 8.974 11.456 16.339 11.456 7.37 0 13.935-4.61 16.339-11.456l48.944-167.337h156.441c7.554 0 14.221-4.792 16.482-11.851 2.274-7.052-0.395-14.776-6.583-19.013l-127.902-90.303 52.444-154.479c2.346-6.93-0.105-14.62-6.099-18.969-3.049-2.242-6.665-3.352-10.299-3.352z" />
<glyph unicode="&#x4f;" glyph-name="checkmark" d="M864 832l-480-480-224 224-160-160 384-384 640 640z" />
<glyph unicode="&#x50;" glyph-name="twitter" d="M512 952.32c-271.462 0-491.52-220.058-491.52-491.52s220.058-491.52 491.52-491.52 491.52 220.058 491.52 491.52-220.058 491.52-491.52 491.52zM711.885 549.632c0.205-4.147 0.307-8.346 0.307-12.544 0-127.898-97.382-275.405-275.456-275.405-54.63 0-105.574 15.974-148.378 43.52 7.578-0.922 15.309-1.331 23.091-1.331 45.363 0 87.091 15.462 120.269 41.472-42.342 0.768-78.131 28.774-90.47 67.174 5.888-1.126 11.981-1.741 18.176-1.741 8.858 0 17.408 1.178 25.498 3.379-44.237 8.909-77.67 48.026-77.67 94.925 0 0.41 0 0.819 0.051 1.178 13.056-7.219 28.006-11.571 43.827-12.083-25.907 17.357-43.008 46.95-43.008 80.589 0 17.766 4.762 34.406 13.107 48.691 47.718-58.624 119.091-97.178 199.526-101.171-1.638 7.066-2.509 14.438-2.509 22.067 0 53.453 43.366 96.819 96.819 96.819 27.853 0 52.992-11.725 70.656-30.566 22.067 4.301 42.803 12.339 61.491 23.45-7.27-22.579-22.579-41.574-42.598-53.555 19.61 2.355 38.246 7.526 55.603 15.258-12.954-19.405-29.44-36.454-48.333-50.125z" />
<glyph unicode="&#x51;" glyph-name="facebook" d="M512 952.32c-271.462 0-491.52-220.058-491.52-491.52s220.058-491.52 491.52-491.52 491.52 220.058 491.52 491.52-220.058 491.52-491.52 491.52zM628.378 612.659h-73.882c-8.704 0-18.432-11.52-18.432-26.829v-53.35h92.365v-76.083h-92.365v-228.403h-87.245v228.403h-79.053v76.032h79.053v44.749c0 64.205 44.544 116.378 105.677 116.378h73.882v-80.896z" />
<glyph unicode="&#x52;" glyph-name="googleplus" d="M465.766 599.808c-12.339 43.52-32.307 56.371-63.386 56.371-3.328 0-6.707-0.461-9.933-1.331-13.517-3.84-24.166-15.104-30.106-31.744-6.093-16.896-6.502-34.56-1.178-54.63 9.421-35.84 34.918-61.901 60.672-61.901 3.328 0 6.707 0.461 9.933 1.331 28.006 7.936 45.619 50.842 33.997 91.904zM512 952.32c-271.462 0-491.52-220.058-491.52-491.52s220.058-491.52 491.52-491.52c271.514 0 491.52 220.058 491.52 491.52s-220.006 491.52-491.52 491.52zM483.686 249.754c-30.925-15.002-64.154-16.589-77.005-16.589-2.458 0-3.84 0.051-4.045 0.051 0 0-0.973 0-2.509 0-20.070 0-119.962 4.608-119.962 95.59 0 89.395 108.749 96.358 142.080 96.358h0.922c-19.2 25.702-15.206 51.61-15.206 51.61-1.69-0.102-4.198-0.205-7.219-0.205-12.595 0-36.813 1.997-57.6 15.462-25.446 16.333-38.349 44.237-38.349 82.893 0 109.107 119.091 113.51 120.32 113.562h118.938v-2.611c0-13.312-23.859-15.872-40.192-18.125-5.53-0.768-16.589-1.894-19.763-3.482 30.157-16.077 35.021-41.421 35.021-79.104 0-42.854-16.794-65.536-34.611-81.51-11.008-9.83-19.712-17.664-19.712-28.006 0-10.138 11.878-20.582 25.702-32.717 22.579-19.866 53.555-47.053 53.555-92.723 0-47.206-20.326-80.998-60.365-100.454zM743.782 461.261h-77.619v-77.619h-49.152v77.619h-77.619v49.152h77.619v77.568h49.152v-77.619h77.619v-49.101zM421.018 401.869c-2.662 0-5.325-0.102-7.987-0.307-22.733-1.638-43.725-10.189-58.931-24.013-15.053-13.619-22.682-30.771-21.606-48.179 2.253-36.352 41.37-57.702 88.781-54.272 46.746 3.379 77.875 30.259 75.571 66.662-2.202 34.253-31.949 60.109-75.827 60.109z" />
<glyph unicode="&#x53;" glyph-name="pinterest" d="M512 952.32c-271.462 0-491.52-220.058-491.52-491.52s220.058-491.52 491.52-491.52 491.52 220.058 491.52 491.52-220.058 491.52-491.52 491.52zM545.587 344.269c-31.488 2.458-44.698 18.074-69.376 33.075-13.619-71.27-30.157-139.571-79.36-175.206-15.155 107.674 22.323 188.518 39.68 274.33-29.645 49.869 3.584 150.323 66.099 125.594 76.954-30.464-66.662-185.549 29.747-204.954 100.659-20.224 141.722 174.643 79.309 237.978-90.163 91.494-262.451 2.099-241.254-128.922 5.171-32.051 38.195-41.728 13.21-85.965-57.702 12.8-74.957 58.317-72.704 118.989 3.584 99.379 89.242 168.909 175.155 178.586 108.698 12.134 210.688-39.885 224.819-142.131 15.821-115.456-49.101-240.384-165.325-231.373z" />
<glyph unicode="&#xe600;" glyph-name="delete" d="M576 512h128v-320h-128zM960 768h-256v128c0 35.376-28.624 64-64 64h-256c-35.376 0-64-28.624-64-64v-128h-256c-35.376 0-64-28.624-64-64v-64h64v-640c0-35.376 28.624-64 64-64h768c35.376 0 64 28.624 64 64v640h64v64c0 35.376-28.624 64-64 64zM448 832h128v-64h-128v64zM832 64h-640v576h640v-576zM320 512h128v-320h-128z" />
<glyph unicode="&#xe601;" glyph-name="reply" horiz-adv-x="736" d="M368 720c-160 0-288-128-288-288s128-288 288-288c160 0 288 128 288 288s-128 288-288 288zM483.2 320h-64v96l-118.4-118.4-44.8 44.8 118.4 118.4h-96v73.6h208v-214.4z" />
<glyph unicode="&#xe602;" glyph-name="tinsmith" d="M902.349 267.776h116.941v252.928l-202.957 202.957h-347.546l-181.453-179.2h-165.274l-112.026-111.821v-164.864h117.555c15.36-52.429 63.693-90.726 121.037-90.726s105.677 38.502 121.037 90.726h290.202c15.36-52.429 63.693-90.726 121.037-90.726 57.549 0 106.086 38.298 121.446 90.726zM730.522 303.206c0 27.853 22.733 50.79 50.79 50.79 27.853 0 50.586-22.733 50.586-50.79 0-27.853-22.733-50.586-50.586-50.586s-50.79 22.733-50.79 50.586zM248.832 353.792c27.853 0 50.586-22.733 50.586-50.79 0-27.853-22.733-50.586-50.586-50.586s-50.79 22.733-50.79 50.586c0 28.262 22.938 50.79 50.79 50.79zM563.61 343.552v304.538h221.184l158.72-158.515v-146.022h-43.008c-16.794 49.971-63.898 86.016-119.398 86.016-55.706 0-102.605-36.25-119.398-86.016h-98.099z" />
<glyph unicode="&#xe603;" glyph-name="repair" d="M31.13 652.8v-147.456l156.672-156.672h173.056l390.758-390.963h146.637l103.629 103.424v146.637l-390.963 391.168v172.851l-156.672 156.672h-147.661l-88.269-88.269v-52.838l99.533-99.533v-45.875h-45.875l-99.738 99.533h-52.838l-88.269-88.678zM130.867 611.635l15.155 15.155 84.787-84.787h137.83l48.742 48.742v138.035l-84.787 84.787 15.155 15.155h65.126l98.509-98.509v-172.851l390.963-390.963v-64.102l-45.261-45.261h-64.102l-391.168 391.168h-172.851l-98.509 98.304 0.41 65.126z" />
<glyph unicode="&#xe604;" glyph-name="rent" d="M830.874 624.333h-320.512l-167.322-165.274h-152.371l-103.014-103.014v-151.757h108.544c14.131-48.333 58.778-83.763 111.616-83.763s97.485 35.226 111.616 83.763h267.674c14.131-48.333 58.778-83.763 111.616-83.763s97.485 35.226 111.616 83.763h107.52v233.062l-186.982 186.982zM307.61 190.157c-25.805 0-46.694 20.89-46.694 46.49 0 25.805 20.89 46.694 46.694 46.694s46.49-20.89 46.49-46.694c0-25.6-20.685-46.49-46.49-46.49zM798.31 190.157c-25.805 0-46.694 20.89-46.694 46.49 0 25.805 20.89 46.694 46.694 46.694s46.49-20.89 46.49-46.694c0.41-25.6-20.685-46.49-46.49-46.49zM948.224 273.92h-39.526c-15.565 46.080-58.982 79.462-110.182 79.462-51.405 0-94.822-33.178-110.182-79.462h-270.336c-15.565 46.080-58.982 79.462-110.387 79.462-51.2 0-94.822-33.178-110.182-79.462h-39.936v53.248l62.259 62.259h152.166l167.322 165.274h262.758l146.227-146.227v-134.554zM4.915 694.784c0 97.894 79.462 177.357 177.357 177.357s177.357-79.667 177.357-177.357c0-97.894-79.462-177.357-177.357-177.357s-177.357 79.462-177.357 177.357zM43.827 694.784c0-76.186 62.054-138.445 138.445-138.445 76.186 0 138.445 62.259 138.445 138.445s-62.259 138.445-138.445 138.445c-76.39 0-138.445-62.259-138.445-138.445zM112.026 667.75h89.702v116.531h-38.912v-77.619h-50.79z" />
<glyph unicode="&#xe605;" glyph-name="mail2" horiz-adv-x="725" d="M133.535 680.28v-432.231h454.299v432.231h-454.299zM505.745 631.224l-144.358-150.543-144.077 150.543h288.435zM180.623 297.106v302.913l180.764-188.635 179.499 187.23v-301.507h-360.262z" />
<glyph unicode="&#xe606;" glyph-name="mobile-repair" d="M643.277 512.307c-13.926 0-25.395-11.264-25.395-25.395s11.264-25.395 25.395-25.395c13.926 0 25.395 11.264 25.395 25.395s-11.469 25.395-25.395 25.395zM377.037 512.307c-13.926 0-25.395-11.264-25.395-25.395s11.264-25.395 25.395-25.395c13.926 0 25.395 11.264 25.395 25.395s-11.469 25.395-25.395 25.395zM502.579 659.354l-90.726-89.702h-82.534l-33.792-33.792v-28.877h21.709c8.397 24.986 31.949 43.008 59.802 43.008s51.405-18.022 59.802-43.008h146.637c8.397 24.986 31.949 43.008 59.802 43.008s51.405-18.022 59.802-43.008h21.504v73.114l-79.462 79.258h-142.541zM509.952 949.146c-233.062 0-422.707-189.85-422.707-422.912v-15.77l422.707-555.008 422.912 555.213v15.77c0 232.858-189.645 422.707-422.912 422.707zM762.47 469.094h-58.573c-7.782-26.214-31.949-45.466-60.621-45.466s-52.838 19.251-60.621 45.466h-145.203c-7.578-26.214-31.949-45.466-60.621-45.466s-52.838 19.251-60.621 45.466h-58.778v82.33l55.91 55.91h82.739l90.726 89.702h173.875l101.376-101.581v-126.362z" />
<glyph unicode="&#xe607;" glyph-name="car-wash" d="M776.602 481.792h-321.741l-167.936-165.888h-153.395l-103.629-103.629v-152.576h108.954c14.131-48.538 58.982-83.968 112.026-83.968s97.894 35.43 112.026 83.968h268.698c14.336-48.538 59.187-83.968 112.026-83.968 53.043 0 97.894 35.43 112.026 83.968h108.339v234.291l-187.392 187.802zM251.085 45.773c-25.805 0-46.899 20.89-46.899 46.899 0 25.805 21.094 46.899 46.899 46.899s46.899-21.094 46.899-46.899c0-26.010-21.094-46.899-46.899-46.899zM744.038 45.773c-25.805 0-46.899 20.89-46.899 46.899 0 25.805 21.094 46.899 46.899 46.899s46.899-21.094 46.899-46.899c-0.205-26.010-21.094-46.899-46.899-46.899zM894.362 129.741h-39.731c-15.565 46.285-59.187 79.667-110.592 79.667s-95.027-33.382-110.592-79.667h-271.565c-15.565 46.285-59.392 79.667-110.797 79.667s-95.027-33.382-110.592-79.667h-40.346v53.658l62.464 62.464h152.986l167.936 165.888h263.987l146.842-146.842v-135.168zM24.576 937.472h964.813v-103.424h-964.813v103.424zM24.576 751.104h45.875v-84.173h-45.875v84.173zM155.853 751.104h45.875v-84.173h-45.875v84.173zM287.13 751.104h45.875v-84.173h-45.875v84.173zM418.611 751.104h45.875v-84.173h-45.875v84.173zM549.888 751.104h45.875v-84.173h-45.875v84.173zM681.165 751.104h45.875v-84.173h-45.875v84.173zM812.442 751.104h45.875v-84.173h-45.875v84.173zM943.718 751.104h45.875v-84.173h-45.875v84.173z" />
<glyph unicode="&#xe608;" glyph-name="tire-change" d="M509.338 929.894c-264.602 0-479.027-214.426-479.027-479.027s214.426-479.027 479.027-479.027c264.602 0 479.027 214.426 479.027 479.027s-214.426 479.027-479.027 479.027zM508.518 89.395c-203.162 0-367.821 164.659-367.821 367.821s164.659 367.821 367.821 367.821c203.162 0 367.821-164.659 367.821-367.821s-164.659-367.821-367.821-367.821zM580.608 450.867c0-38.683-31.359-70.042-70.042-70.042s-70.042 31.359-70.042 70.042c0 38.683 31.359 70.042 70.042 70.042s70.042-31.359 70.042-70.042zM384 377.549l-84.173-154.214c0 0-95.642 60.621-88.064 157.901zM510.771 304.64l91.341-150.118c0 0-100.352-52.429-180.838 2.662zM637.338 377.958l175.718 4.096c0 0-4.71-113.050-92.57-155.238zM637.133 524.186l84.173 154.214c0 0 95.642-60.621 88.064-157.901zM515.277 597.504l-99.942 144.589c0 0 97.28 58.163 180.634 7.782zM383.795 523.776l-175.718-4.096c0 0 4.71 113.050 92.57 155.238z" />
<glyph unicode="&#xe609;" glyph-name="towing" d="M514.253 925.798c-261.939 0-474.317-212.378-474.317-474.317s212.378-474.317 474.317-474.317 474.317 212.378 474.317 474.317-212.378 474.317-474.317 474.317zM288.768 449.229c0 123.085 100.147 223.027 223.027 223.027s223.027-100.147 223.027-223.027-99.942-223.232-223.027-223.232-223.027 100.147-223.027 223.232zM467.558 852.48v-133.734c-127.386-13.312-226.714-121.037-226.714-251.904 0-4.506 0.41-8.806 0.614-13.312h-133.53c-0.205 4.506-0.41 8.806-0.41 13.312 0 204.186 159.13 371.917 360.038 385.638zM536.781 44.749c-17.818 0-35.226 1.229-52.429 3.686v132.71c16.794-3.686 34.406-5.53 52.429-5.53 132.915 0 241.050 104.243 248.013 235.52h131.072c-6.963-203.162-174.285-366.387-379.085-366.387z" />
<glyph unicode="&#xe60a;" glyph-name="itp" d="M446.464 602.624c-44.646 0-80.896-36.25-80.896-80.896s36.25-80.896 80.896-80.896c44.646 0 80.896 36.25 80.896 80.896 0.205 44.646-36.25 80.896-80.896 80.896zM446.464 488.755c-18.022 0-32.768 14.746-32.768 32.768s14.746 32.768 32.768 32.768c18.022 0 32.768-14.746 32.768-32.768 0.205-18.022-14.541-32.768-32.768-32.768zM658.022 497.562v48.128h-34.406c-4.301 31.334-16.589 60.006-35.021 83.968l24.371 24.371-33.997 33.997-24.371-24.371c-23.962 18.432-52.634 30.72-84.173 35.021v34.406h-48.128v-34.406c-31.334-4.301-60.006-16.589-84.173-35.021l-24.371 24.371-33.997-33.997 24.371-24.371c-18.227-23.962-30.72-52.634-35.021-83.968h-34.406v-48.128h34.406c4.301-31.334 16.589-60.006 35.021-84.173l-24.371-24.371 33.997-33.997 24.371 24.371c23.962-18.432 52.838-30.72 84.173-35.021v-34.406h48.128v34.406c31.334 4.301 60.006 16.589 84.173 35.021l24.371-24.371 33.997 33.997-24.371 24.371c18.432 23.962 30.72 52.634 35.021 84.173h34.406zM446.464 390.861c-72.090 0-130.867 58.573-130.867 130.867 0 72.090 58.573 130.867 130.867 130.867s130.867-58.573 130.867-130.867c0-72.294-58.573-130.867-130.867-130.867zM438.272 102.707c-231.219 0-419.43 188.211-419.43 419.43 0 231.424 188.211 419.635 419.43 419.635s419.43-188.211 419.43-419.635c0.205-231.219-188.006-419.43-419.43-419.43zM438.272 835.686c-172.851 0-313.344-140.698-313.344-313.549s140.698-313.344 313.549-313.344c172.851 0 313.344 140.698 313.344 313.344 0 172.851-140.698 313.549-313.549 313.549zM920.781-35.123l-260.915 260.71 75.162 74.957 260.71-260.71z" />
<glyph unicode="&#xe60b;" glyph-name="fast-repair" d="M7.373 657.51v-127.181l134.758-134.963h149.094l336.486-336.486h126.362l89.088 89.088v126.157l-336.486 336.691v148.89l-134.963 134.963h-127.181l-75.776-75.981v-45.67l85.606-85.606v-39.526h-39.731l-85.606 85.606h-45.466l-76.186-75.981zM93.184 622.080l12.902 12.902 72.909-72.909h118.989l41.984 41.984v118.989l-72.909 72.909 13.107 12.902h56.115l84.787-84.787v-148.685l336.486-336.486v-55.296l-38.912-38.912h-55.296l-336.486 336.691h-148.89l-84.787 84.582v56.115zM800.973 430.797l108.544-98.099 108.339 97.894zM270.746 347.443h-95.027v-340.378h278.528v95.027h-183.501zM654.336 701.952l39.936-88.678h164.454v-198.451h98.509v287.13z" />
<glyph unicode="&#xe60c;" glyph-name="damage-evaluation" d="M703.283 897.126h-618.086v-600.064l450.765-297.984 421.274 278.528v619.52h-253.952zM823.706 348.467l-287.744-191.898-308.019 205.21v413.491h595.763v-426.803z" />
<glyph unicode="&#xe60d;" glyph-name="financing" d="M508.518 929.894c-264.397 0-478.618-214.221-478.618-478.618s214.221-478.618 478.618-478.618c264.397 0 478.618 214.221 478.618 478.618s-214.221 478.618-478.618 478.618zM507.699 90.214c-202.957 0-367.616 164.659-367.616 367.616s164.454 367.616 367.616 367.616c202.957 0 367.616-164.454 367.616-367.616s-164.659-367.616-367.616-367.616zM367.206 348.262l64.307 48.333c13.926-19.456 32.973-34.816 59.802-38.912v66.355l-22.938 7.578c-51.814 17.408-84.787 46.285-84.787 100.557 0 63.693 54.886 94.208 107.52 98.099v42.803h36.454v-43.827c45.875-5.53 74.138-25.805 90.112-46.899l-50.79-51.814c-9.421 10.445-19.866 20.89-39.322 24.986v-59.187l16.384-5.53c74.752-26.010 97.69-58.778 97.69-109.568 0-56.32-42.394-91.75-114.074-97.28v-53.862h-36.454v53.248c-62.054 4.096-103.014 35.43-123.904 64.922zM467.354 533.606c0-12.493 6.963-18.022 23.962-24.371v46.899c-15.974-3.072-23.962-10.65-23.962-22.528zM527.565 358.093c18.842 3.482 28.467 12.083 28.467 26.010 0 12.902-7.987 19.866-28.467 27.443v-53.453z" />
<glyph unicode="&#xe60e;" horiz-adv-x="725" d="M509.259 885.221h-453.456c-30.783 0-55.803-25.301-55.803-56.506v-762.272c0-15.602 6.325-29.659 16.305-39.92 10.121-10.261 24.036-16.586 39.498-16.586h613.557c30.783 0 55.803 25.301 55.803 56.506v600.203l-215.904 218.575z" />
<glyph unicode="&#xe60f;" horiz-adv-x="725" d="M607.091 786.124l-97.41-98.675 215.483-218.153v197.35l-118.073 119.478z" />
<glyph unicode="&#xe610;" horiz-adv-x="725" d="M509.259 885.221h-7.309v-169.378c0-31.205 25.020-56.506 55.803-56.506h167.27v7.309l-215.764 218.575z" />
<glyph unicode="&#xe611;" horiz-adv-x="725" d="M303.897 331.825l54.117 107.39c5.060-25.442 54.819-74.498 54.819-74.498-20.522-2.53-108.936-32.892-108.936-32.892zM524.159 337.588c-1.546 0.984-3.374 1.827-5.060 2.671-3.936 0-7.45-0.141-10.261-0.141-9.137 0-20.382 9.137-29.096 18.133-35.703 18.133-80.121 51.165-108.936 133.675 0 0-17.851 66.065-20.382 88.836s7.59 45.683 12.791 25.442c0 0 10.261-22.912 5.060-40.623l5.060-30.502c0 0 17.851 66.065 5.060 83.775 0 0-48.213 27.972-50.884-15.321-2.53-43.153 2.671-106.265 7.872-116.386 0 0-50.743-154.619-117.229-248.656 0 0-28.113-40.623-40.904-45.683 0 0-30.643-12.651-10.261 15.181 0 0 48.494 55.944 58.755 71.125 0 0-88.976-50.743-94.037-63.394s-17.711-38.233 14.759-50.884c0 0 37.53-3.092 65.643 27.41 0 0 65.924 81.386 78.715 106.828 0 0 41.466 15.321 179.358 40.763 0 0 74.077-35.281 97.129-40.342s33.173-22.912 33.173-22.912 27.55 20.382 14.759 28.113c-12.37 7.731-60.442 15.181-91.085 32.892zM587.974 332.528c17.851-10.121 15.321-17.711 28.113-7.59s-12.791 22.771-33.173 30.502c-20.382 7.59-117.511 19.679-117.511 19.679s6.185-8.293 14.478-16.868c15.462-7.872 29.096-12.932 39.217-17.992 20.663 0.422 53.836 0.843 68.876-7.731z" />
<glyph unicode="&#xe612;" glyph-name="help" horiz-adv-x="736" d="M224 444.8c9.6-60.8 44.8-105.6 115.2-115.2v-48c-48 3.2-80 22.4-112 54.4s-51.2 70.4-54.4 112l51.2-3.2zM361.6 563.2c51.2 0 96-41.6 96-96 0-51.2-41.6-96-96-96s-96 41.6-96 96c3.2 54.4 44.8 96 96 96zM387.2 656c48-3.2 80-22.4 112-54.4s51.2-70.4 54.4-112h-48c-9.6 60.8-44.8 105.6-115.2 115.2l-3.2 51.2zM124.8 457.6c3.2-57.6 25.6-115.2 70.4-156.8 41.6-41.6 99.2-67.2 156.8-70.4 0 3.2 0 6.4 3.2 9.6s12.8 3.2 16 0c3.2-3.2 3.2-6.4 3.2-9.6 57.6 3.2 115.2 25.6 156.8 70.4 41.6 41.6 67.2 99.2 70.4 156.8-3.2 0-6.4 0-9.6 3.2s-3.2 12.8 0 16c3.2 3.2 6.4 3.2 9.6 3.2-3.2 57.6-25.6 115.2-70.4 156.8-41.6 41.6-99.2 67.2-156.8 70.4 0-3.2 0-6.4-3.2-9.6s-12.8-3.2-16 0c-3.2 3.2-3.2 6.4-3.2 9.6-57.6-3.2-115.2-25.6-156.8-70.4-41.6-41.6-67.2-99.2-70.4-156.8 3.2 0 6.4 0 9.6-3.2s3.2-12.8 0-16c-3.2-3.2-3.2-3.2-9.6-3.2z" />
<glyph unicode="&#xe613;" glyph-name="burger" horiz-adv-x="1132" d="M0-64v155.325h1131.789v-155.325h-1131.789zM0 525.662h1131.789v-155.325h-1131.789v155.325zM0 960h1131.789v-155.325h-1131.789v155.325z" />
<glyph unicode="&#xe614;" glyph-name="plus" d="M1024 367.158h-431.158v-431.158h-161.684v431.158h-431.158v161.684h431.158v431.158h161.684v-431.158h431.158v-161.684z" />
<glyph unicode="&#xe615;" glyph-name="search_filters_bars" horiz-adv-x="1109" d="M256-64v170.667h853.333v-170.667h-853.333zM314.965 516.864l794.368 16.469v-170.667h-768l-26.368 154.197zM0 960h1109.333v-170.667h-1024l-85.333 170.667z" />
<glyph unicode="&#xe616;" glyph-name="autorenew" horiz-adv-x="1132" d="M1077.895 364.463c-21.558-35.032-107.789-164.379-129.347-164.379v0c-24.253 0-129.347 167.074-153.6 218.274-10.779 24.253-10.779 29.642-8.084 32.337 5.389 8.084 61.979 10.779 113.179 10.779-5.389 67.368-29.642 132.042-72.758 185.937-35.032 40.421-78.147 72.758-123.958 94.316-10.779 5.389-18.863 8.084-26.947 10.779l-8.084 2.695c-8.084 2.695-13.474 2.695-21.558 5.389l-10.779 2.695c-8.084 2.695-16.168 2.695-24.253 2.695h-8.084c-10.779 0-18.863 2.695-29.642 2.695v0c-70.063 0-134.737-21.558-191.326-59.284-24.253-18.863-64.674-10.779-80.842 13.474-8.084 13.474-13.474 26.947-10.779 43.116s10.779 29.642 24.253 37.726c75.453 51.2 161.684 80.842 253.305 80.842h5.389c13.474 0 26.947 0 37.726-2.695l21.558-2.695c5.389 0 8.084 0 13.474-2.695l8.084-2.695c2.695 0 8.084-2.695 10.779-2.695h5.389c10.779-2.695 18.863-5.389 26.947-8.084 2.695 0 5.389-2.695 8.084-2.695l5.389-2.695c10.779-2.695 21.558-8.084 32.337-10.779l5.389-2.695c64.674-26.947 121.263-70.063 167.074-123.958l2.695-2.695c8.084-8.084 13.474-16.168 18.863-24.253l-2.695-5.389 5.389 2.695c45.811-67.368 72.758-145.516 78.147-229.053 51.2-2.695 97.011-5.389 99.705-13.474 0-5.389 5.389-13.474-40.421-83.537zM353.011 426.442c-5.389-8.084-53.895-13.474-107.789-16.168 5.389-64.674 29.642-123.958 70.063-175.158v-8.084l2.695 2.695c5.389-8.084 13.474-13.474 18.863-21.558 24.253-24.253 48.505-43.116 75.453-56.589 8.084-5.389 18.863-8.084 26.947-13.474l2.695-8.084 2.695 5.389c8.084-2.695 16.168-5.389 21.558-8.084l8.084-2.695c5.389-2.695 13.474-2.695 18.863-5.389h2.695c2.695 0 5.389-2.695 8.084-2.695 8.084 0 13.474-2.695 21.558-2.695l10.779-2.695c8.084 0 18.863 0 26.947-2.695h5.389c67.368 0 132.042 21.558 188.632 59.284 24.253 18.863 61.979 10.779 80.842-13.474 18.863-26.947 10.779-61.979-13.474-80.842-75.453-53.895-164.379-80.842-256-80.842-16.168 0-29.642 0-45.811 2.695l-13.474 2.695c-5.389 0-13.474 2.695-18.863 2.695-2.695 0-2.695 0-5.389 0-8.084 2.695-10.779 2.695-16.168 2.695h-2.695c-8.084 2.695-16.168 5.389-26.947 5.389-5.389 0-8.084 2.695-10.779 2.695-10.779 2.695-21.558 8.084-29.642 10.779l-8.084 2.695c-10.779 5.389-21.558 10.779-32.337 16.168l-2.695 2.695c-37.726 18.863-70.063 45.811-99.705 75.453l-2.695 2.695c-8.084 8.084-16.168 18.863-24.253 26.947l-10.779 13.474c-5.389 5.389-8.084 10.779-13.474 16.168l2.695 5.389-5.389-2.695c-45.811 64.674-72.758 142.821-78.147 223.663-48.505 0-99.705 2.695-105.095 10.779-2.695 2.695-2.695 8.084 8.084 32.337 24.253 51.2 129.347 218.274 153.6 218.274s110.484-132.042 129.347-164.379c48.505-64.674 45.811-72.758 43.116-75.453z" />
<glyph unicode="&#xe912;" glyph-name="youtube" d="M981.188 799.892c-143.632 20.65-302.332 32.108-469.186 32.108-166.86 0-325.556-11.458-469.194-32.108-27.53-107.726-42.808-226.75-42.808-351.892 0-125.14 15.278-244.166 42.808-351.89 143.638-20.652 302.336-32.11 469.194-32.11 166.854 0 325.552 11.458 469.186 32.11 27.532 107.724 42.812 226.75 42.812 351.89 0 125.142-15.28 244.166-42.812 351.892zM384.002 256v384l320-192-320-192z" />
<glyph unicode="&#xe91f;" glyph-name="blog" d="M896 832v-832h-672c-53.026 0-96 42.98-96 96s42.974 96 96 96h608v768h-640c-70.398 0-128-57.6-128-128v-768c0-70.4 57.602-128 128-128h768v896h-64zM224.056 128v0c-0.018-0.002-0.038 0-0.056 0-17.672 0-32-14.326-32-32s14.328-32 32-32c0.018 0 0.038 0.002 0.056 0.002v-0.002h607.89v64h-607.89z" />
<glyph unicode="&#xea82;" glyph-name="share2" d="M864 256c-45.16 0-85.92-18.738-115.012-48.83l-431.004 215.502c1.314 8.252 2.016 16.706 2.016 25.328s-0.702 17.076-2.016 25.326l431.004 215.502c29.092-30.090 69.852-48.828 115.012-48.828 88.366 0 160 71.634 160 160s-71.634 160-160 160-160-71.634-160-160c0-8.622 0.704-17.076 2.016-25.326l-431.004-215.504c-29.092 30.090-69.852 48.83-115.012 48.83-88.366 0-160-71.636-160-160 0-88.368 71.634-160 160-160 45.16 0 85.92 18.738 115.012 48.828l431.004-215.502c-1.312-8.25-2.016-16.704-2.016-25.326 0-88.368 71.634-160 160-160s160 71.632 160 160c0 88.364-71.634 160-160 160z" />
<glyph unicode="&#xeabf;" glyph-name="apple" d="M791.498 415.908c-1.294 129.682 105.758 191.876 110.542 194.966-60.152 88.020-153.85 100.078-187.242 101.472-79.742 8.074-155.596-46.948-196.066-46.948-40.368 0-102.818 45.754-168.952 44.552-86.916-1.292-167.058-50.538-211.812-128.38-90.304-156.698-23.126-388.84 64.89-515.926 43.008-62.204 94.292-132.076 161.626-129.58 64.842 2.588 89.362 41.958 167.756 41.958s100.428-41.958 169.050-40.67c69.774 1.296 113.982 63.398 156.692 125.796 49.39 72.168 69.726 142.038 70.924 145.626-1.548 0.706-136.060 52.236-137.408 207.134zM662.562 796.478c35.738 43.358 59.86 103.512 53.28 163.522-51.478-2.096-113.878-34.29-150.81-77.55-33.142-38.376-62.148-99.626-54.374-158.436 57.466-4.484 116.128 29.204 151.904 72.464z" />
<glyph unicode="&#xeac1;" glyph-name="android" d="M896 576c-35.2 0-64-28.8-64-64v-256c0-35.2 28.8-64 64-64s64 28.8 64 64v256c0 35.2-28.8 64-64 64zM128 576c-35.2 0-64-28.8-64-64v-256c0-35.2 28.8-64 64-64s64 28.8 64 64v256c0 35.2-28.802 64-64 64zM224 224c0-53.020 42.98-96 96-96v0-128c0-35.2 28.8-64 64-64s64 28.8 64 64v128h128v-128c0-35.2 28.8-64 64-64s64 28.8 64 64v128c53.020 0 96 42.98 96 96v352h-576v-352zM798.216 639.998c-9.716 87.884-59.004 163.792-129.62 209.646l32.024 64.046c7.904 15.806 1.496 35.028-14.31 42.932s-35.030 1.496-42.932-14.312l-32.142-64.286-8.35 3.316c-28.568 9.502-59.122 14.66-90.886 14.66-31.762 0-62.316-5.158-90.888-14.656l-8.348-3.316-32.142 64.282c-7.904 15.808-27.128 22.212-42.932 14.312-15.808-7.904-22.214-27.126-14.312-42.932l32.022-64.046c-70.616-45.852-119.904-121.762-129.622-209.644v-32h574.222v31.998h-1.784zM416 704c-17.674 0-32 14.328-32 32 0 17.648 14.288 31.958 31.93 31.996 0.032 0 0.062-0.002 0.094-0.002 0.018 0 0.036 0.002 0.052 0.002 17.638-0.042 31.924-14.35 31.924-31.996 0-17.672-14.326-32-32-32zM608 704c-17.674 0-32 14.328-32 32 0 17.646 14.286 31.954 31.924 31.996 0.016 0 0.034-0.002 0.050-0.002 0.032 0 0.064 0.002 0.096 0.002 17.64-0.038 31.93-14.348 31.93-31.996 0-17.672-14.326-32-32-32z" />
<glyph unicode="&#xeac3;" glyph-name="windows8" d="M0.35 448l-0.35 312.074 384 52.144v-364.218zM448 821.518l511.872 74.482v-448h-511.872zM959.998 384l-0.126-448-511.872 72.016v375.984zM384 16.164l-383.688 52.594-0.020 315.242h383.708z" />
</font>
</defs>
</svg>
